<?xml version="1.0" encoding="UTF-8" standalone="no"?>
<!DOCTYPE svg PUBLIC "-//W3C//DTD SVG 1.1//EN" "http://www.w3.org/Graphics/SVG/1.1/DTD/svg11.dtd">
<svg width="100%" height="100%" viewBox="0 0 48 48" version="1.1" xmlns="http://www.w3.org/2000/svg" xmlns:xlink="http://www.w3.org/1999/xlink" xml:space="preserve" xmlns:serif="http://www.serif.com/" style="fill-rule:evenodd;clip-rule:evenodd;stroke-linejoin:round;stroke-miterlimit:2;">
<style>
	path {color: black;}
	@media (prefers-color-scheme: dark){path {color: white;}}
</style>
    <g transform="matrix(1,0,0,1,-32750,0)">
        <g id="Artboard4" transform="matrix(0.00779235,0,0,0.0364406,32494.8,0)">
            <rect x="32750.9" y="0" width="6159.89" height="1317.21" style="fill:none;"/>
            <clipPath id="_clip1">
                <rect x="32750.9" y="0" width="6159.89" height="1317.21"/>
            </clipPath>
            <g clip-path="url(#_clip1)" fill="currentColor">
                <g transform="matrix(3.70484,-0.792231,3.70484,0.792231,21000.2,1609.3)">
                    <path d="M2724.47,1165.34L2630.24,1071.12L2718.87,982.498L2926.29,1189.92C2983.09,1246.72 3015,1323.76 3015,1404.09C3015,1484.42 2983.09,1561.46 2926.29,1618.27L2688.61,1855.94L2833.53,2000.86L2744.91,2089.49L2599.99,1944.57L2455.52,2089.03L2361.24,1994.75L2722.6,1633.39L2575.78,1633.39C2586.25,1619.46 2592.45,1602.14 2592.45,1583.39C2592.45,1564.64 2586.25,1547.32 2575.78,1533.39L2822.6,1533.39L2832.01,1523.98C2851.98,1504.01 2868.68,1477.34 2878.35,1449.12L2750.62,1449.12C2723.03,1449.12 2700.62,1426.72 2700.62,1399.12C2700.62,1371.53 2723.03,1349.12 2750.62,1349.12L2880,1349.12C2871.97,1322.72 2857.54,1298.42 2837.66,1278.54L2824.47,1265.34L2595.25,1265.34C2605.72,1251.41 2611.93,1234.1 2611.93,1215.34C2611.93,1196.59 2605.72,1179.28 2595.25,1165.34L2724.47,1165.34ZM2466.05,1633.39L2571.48,1738.82L2482.86,1827.44L2275.05,1619.63C2218.25,1562.83 2186.34,1485.79 2186.34,1405.46C2186.34,1325.13 2218.25,1248.09 2275.05,1191.29L2512.73,953.606L2365.43,806.304L2454.05,717.68L2601.35,864.982L2748.84,717.493L2843.12,811.774L2489.55,1165.34L2528.6,1165.34C2556.19,1165.34 2578.6,1187.75 2578.6,1215.34C2578.6,1242.94 2556.19,1265.34 2528.6,1265.34L2389.55,1265.34L2369.33,1285.57C2352.05,1302.85 2337.21,1325.15 2327.27,1349.12L2683.97,1349.12C2673.5,1363.06 2667.29,1380.37 2667.29,1399.12C2667.29,1417.88 2673.5,1435.19 2683.97,1449.12L2318.33,1449.12C2325.4,1479.89 2340.99,1508.33 2363.67,1531.01L2366.05,1533.39L2509.12,1533.39C2536.72,1533.39 2559.12,1555.79 2559.12,1583.39C2559.12,1610.99 2536.72,1633.39 2509.12,1633.39L2466.05,1633.39Z" fill="currentColor"/>
                </g>
            </g>
        </g>
    </g>
</svg>
