<?xml version="1.0" encoding="UTF-8" standalone="no"?>
<!DOCTYPE svg PUBLIC "-//W3C//DTD SVG 1.1//EN" "http://www.w3.org/Graphics/SVG/1.1/DTD/svg11.dtd">
<svg width="100%" height="100%" viewBox="0 0 48 48" version="1.1" xmlns="http://www.w3.org/2000/svg" xmlns:xlink="http://www.w3.org/1999/xlink" xml:space="preserve" xmlns:serif="http://www.serif.com/" style="fill-rule:evenodd;clip-rule:evenodd;stroke-linejoin:round;stroke-miterlimit:2;">
<style>
	path {color: blue;}
	@media (prefers-color-scheme: dark){path {color: orange;}}
</style>
    <g transform="matrix(1,0,0,1,-32750,0)">
        <g id="Artboard4" transform="matrix(0.00779235,0,0,0.0364406,32494.8,0)">
            <rect x="32750.9" y="0" width="6159.89" height="1317.21" style="fill:none;"/>
            <clipPath id="_clip1">
                <rect x="32750.9" y="0" width="6159.89" height="1317.21"/>
            </clipPath>
            <g clip-path="url(#_clip1)">
                <g transform="matrix(5.31426,0,0,1.13638,22705.4,-557.365)">
                    <path d="M2703.43,931.721C2695.1,913.407 2683.5,896.549 2668.99,882.047C2618.52,831.575 2576.47,832.386 2462.9,832.386L2255.76,832.386L2255.76,699.053L2549.1,699.053C2629.43,699.053 2706.47,730.964 2763.28,787.767C2820.08,844.569 2851.99,921.609 2851.99,1001.94L2851.99,1330.07L3049.42,1330.07L3049.42,1463.4L2851.99,1463.4L2851.99,1667.71L2718.66,1667.71L2718.66,1057.91L2488.66,1287.91C2469.15,1307.42 2437.46,1307.42 2417.95,1287.91C2398.43,1268.4 2398.43,1236.71 2417.95,1217.2L2703.06,932.089C2703.18,931.966 2703.31,931.843 2703.43,931.721ZM2229.47,1207.24C2237.33,1234.65 2252.05,1259.89 2272.57,1280.41C2304.34,1312.18 2327.48,1330.07 2446.5,1330.07L2686.35,1330.07L2686.35,1463.4L2392.46,1463.4C2312.13,1463.4 2235.09,1431.49 2178.29,1374.69C2121.48,1317.89 2089.57,1240.85 2089.57,1160.52L2089.57,832.386L1892.14,832.386L1892.14,699.053L2089.57,699.053L2089.57,490.472L2222.91,490.472L2222.91,1072.38L2399.15,896.141C2418.66,876.628 2450.35,876.628 2469.86,896.141C2489.37,915.654 2489.37,947.338 2469.86,966.852L2229.47,1207.24Z" fill="currentColor"/>
                </g>
            </g>
        </g>
    </g>
</svg>
