<?xml version="1.0" encoding="UTF-8" standalone="no"?>
<!DOCTYPE svg PUBLIC "-//W3C//DTD SVG 1.1//EN" "http://www.w3.org/Graphics/SVG/1.1/DTD/svg11.dtd">
<svg width="100%" height="100%" viewBox="0 0 455 99" version="1.1" xmlns="http://www.w3.org/2000/svg" xmlns:xlink="http://www.w3.org/1999/xlink" xml:space="preserve" xmlns:serif="http://www.serif.com/" style="fill-rule:evenodd;clip-rule:evenodd;stroke-linejoin:round;stroke-miterlimit:2;">
    <g>
        <path d="M255.219,24.346L248.762,9.819L248.762,9.818L251.85,2.872L264.764,2.872L255.219,24.346ZM244.387,48.718C243.82,49.969 242.869,50.745 241.904,50.745L213.084,50.745C212.121,50.745 211.172,49.972 210.605,48.728L190.225,2.872L203.139,2.872L220.863,42.75L220.893,42.745L220.867,42.755C222.037,45.361 224.641,47.045 227.496,47.045C228.527,47.045 229.527,46.829 230.473,46.405C232.104,45.671 233.402,44.369 234.131,42.737L240.115,29.271L246.572,43.798L244.387,48.718ZM222.684,11.693L222.684,11.695C223.193,10.554 224.107,9.588 225.336,9.037C226.037,8.721 226.771,8.574 227.494,8.574C229.502,8.576 231.42,9.73 232.297,11.681L232.297,11.678L239.021,26.808L232.303,41.924L232.303,41.922C231.795,43.063 230.881,44.028 229.652,44.581C228.951,44.895 228.219,45.045 227.496,45.045C225.486,45.045 223.568,43.888 222.691,41.936L222.691,41.938L215.967,26.81L222.684,11.693ZM273.604,52.745L290.895,52.745L267.84,0.872L250.549,0.872L247.668,7.356L246.211,4.079C245.344,2.162 243.742,0.874 241.906,0.872L213.084,0.872C211.25,0.872 209.648,2.157 208.781,4.07L207.32,7.356L204.439,0.872L187.148,0.872L164.092,52.745L181.385,52.745L195.793,20.324L198.676,26.808L187.148,52.745L204.439,52.745L207.32,46.26L208.781,49.546C209.648,51.461 211.25,52.745 213.084,52.745L241.904,52.745C243.74,52.745 245.346,51.456 246.211,49.536L247.668,46.261L250.549,52.745L267.84,52.745L256.312,26.809L259.196,20.324L273.604,52.745Z" style="fill:white;fill-rule:nonzero;"/>
        <path d="M161.436,60.551C161.236,60.172 160.877,59.982 160.354,59.982C160.066,59.982 159.828,60.06 159.641,60.214C159.455,60.37 159.307,60.621 159.201,60.967C159.094,61.314 159.02,61.768 158.977,62.329C158.934,62.889 158.912,63.576 158.912,64.387C158.912,65.251 158.941,65.951 159,66.485C159.059,67.019 159.15,67.432 159.271,67.726C159.395,68.02 159.551,68.217 159.736,68.319C159.924,68.42 160.141,68.471 160.385,68.471C160.588,68.471 160.779,68.437 160.953,68.367C161.131,68.297 161.283,68.159 161.41,67.951C161.539,67.743 161.641,67.449 161.715,67.07C161.789,66.691 161.828,66.192 161.828,65.573L164.133,65.573C164.133,66.192 164.086,66.779 163.99,67.333C163.893,67.889 163.715,68.374 163.453,68.791C163.191,69.207 162.822,69.534 162.348,69.768C161.873,70.003 161.256,70.121 160.498,70.121C159.633,70.121 158.943,69.982 158.432,69.705C157.92,69.427 157.527,69.027 157.254,68.503C156.982,67.98 156.807,67.356 156.727,66.629C156.646,65.904 156.605,65.102 156.605,64.227C156.605,63.362 156.646,62.564 156.727,61.832C156.807,61.101 156.982,60.474 157.254,59.95C157.527,59.427 157.92,59.019 158.432,58.725C158.943,58.432 159.633,58.285 160.498,58.285C161.32,58.285 161.969,58.419 162.443,58.685C162.918,58.952 163.273,59.291 163.51,59.702C163.744,60.113 163.891,60.556 163.949,61.032C164.008,61.506 164.037,61.953 164.037,62.369L161.73,62.369C161.73,61.536 161.633,60.93 161.436,60.551Z" style="fill:white;fill-rule:nonzero;"/>
        <path d="M168.922,65.916C168.752,65.986 168.598,66.037 168.457,66.069C168.01,66.165 167.689,66.325 167.496,66.549C167.305,66.773 167.209,67.078 167.209,67.462C167.209,67.793 167.271,68.077 167.4,68.311C167.529,68.546 167.742,68.663 168.041,68.663C168.191,68.663 168.346,68.639 168.506,68.591C168.666,68.543 168.813,68.465 168.947,68.359C169.08,68.252 169.189,68.113 169.275,67.943C169.359,67.772 169.402,67.569 169.402,67.333L169.402,65.636C169.254,65.753 169.094,65.847 168.922,65.916ZM165.367,63.762C165.367,63.26 165.447,62.841 165.607,62.505C165.768,62.169 165.984,61.896 166.256,61.688C166.527,61.48 166.848,61.331 167.217,61.24C167.586,61.149 167.977,61.103 168.395,61.103C169.055,61.103 169.59,61.167 169.996,61.296C170.4,61.423 170.717,61.605 170.941,61.84C171.164,62.075 171.316,62.355 171.396,62.681C171.477,63.007 171.518,63.362 171.518,63.747L171.518,68.279C171.518,68.685 171.535,68.999 171.572,69.224C171.609,69.448 171.682,69.688 171.789,69.945L169.676,69.945C169.6,69.806 169.545,69.659 169.508,69.504C169.469,69.349 169.436,69.198 169.402,69.047L169.371,69.047C169.115,69.497 168.818,69.788 168.482,69.92C168.146,70.054 167.711,70.121 167.176,70.121C166.793,70.121 166.467,70.054 166.199,69.92C165.932,69.788 165.719,69.603 165.559,69.368C165.398,69.133 165.281,68.869 165.207,68.575C165.131,68.282 165.094,67.991 165.094,67.702C165.094,67.296 165.137,66.947 165.223,66.654C165.309,66.36 165.439,66.109 165.615,65.9C165.791,65.692 166.016,65.519 166.287,65.379C166.561,65.242 166.889,65.119 167.271,65.011L168.521,64.675C168.854,64.59 169.082,64.472 169.211,64.323C169.338,64.173 169.402,63.955 169.402,63.666C169.402,63.336 169.326,63.077 169.17,62.889C169.016,62.703 168.752,62.609 168.377,62.609C168.035,62.609 167.779,62.711 167.609,62.914C167.438,63.117 167.354,63.388 167.354,63.73L167.354,63.97L165.367,63.97L165.367,63.762Z" style="fill:white;fill-rule:nonzero;"/>
        <path d="M174.705,67.415C174.705,67.788 174.803,68.089 175,68.319C175.197,68.548 175.484,68.663 175.857,68.663C176.199,68.663 176.471,68.578 176.674,68.407C176.877,68.236 176.979,67.98 176.979,67.638C176.979,67.361 176.898,67.15 176.738,67.005C176.578,66.862 176.391,66.747 176.178,66.661L174.623,66.1C174.016,65.887 173.557,65.585 173.246,65.196C172.938,64.806 172.783,64.307 172.783,63.698C172.783,63.346 172.84,63.012 172.959,62.697C173.076,62.382 173.262,62.107 173.52,61.873C173.775,61.637 174.104,61.451 174.504,61.311C174.904,61.173 175.387,61.103 175.953,61.103C176.957,61.103 177.699,61.317 178.18,61.744C178.66,62.171 178.9,62.775 178.9,63.554L178.9,63.907L176.914,63.907C176.914,63.457 176.842,63.129 176.699,62.921C176.555,62.713 176.301,62.609 175.938,62.609C175.66,62.609 175.416,62.687 175.209,62.841C175,62.997 174.896,63.228 174.896,63.538C174.896,63.751 174.963,63.944 175.096,64.115C175.23,64.286 175.484,64.429 175.857,64.546L177.188,64.996C177.881,65.23 178.373,65.538 178.66,65.916C178.949,66.295 179.092,66.811 179.092,67.462C179.092,67.921 179.012,68.319 178.852,68.656C178.691,68.992 178.471,69.272 178.188,69.497C177.904,69.72 177.568,69.88 177.18,69.977C176.789,70.073 176.359,70.121 175.889,70.121C175.27,70.121 174.754,70.062 174.344,69.945C173.934,69.828 173.607,69.651 173.367,69.416C173.127,69.181 172.959,68.895 172.861,68.559C172.766,68.223 172.719,67.846 172.719,67.429L172.719,67.125L174.705,67.125L174.705,67.415Z" style="fill:white;fill-rule:nonzero;"/>
        <path d="M183.738,65.916C183.566,65.986 183.412,66.037 183.273,66.069C182.824,66.165 182.504,66.325 182.313,66.549C182.119,66.773 182.023,67.078 182.023,67.462C182.023,67.793 182.088,68.077 182.217,68.311C182.344,68.546 182.557,68.663 182.855,68.663C183.006,68.663 183.16,68.639 183.32,68.591C183.48,68.543 183.627,68.465 183.762,68.359C183.895,68.252 184.004,68.113 184.09,67.943C184.176,67.772 184.219,67.569 184.219,67.333L184.219,65.636C184.068,65.753 183.908,65.847 183.738,65.916ZM180.182,63.762C180.182,63.26 180.262,62.841 180.422,62.505C180.582,62.169 180.799,61.896 181.07,61.688C181.344,61.48 181.662,61.331 182.031,61.24C182.4,61.149 182.793,61.103 183.209,61.103C183.871,61.103 184.404,61.167 184.811,61.296C185.217,61.423 185.531,61.605 185.756,61.84C185.98,62.075 186.133,62.355 186.211,62.681C186.293,63.007 186.332,63.362 186.332,63.747L186.332,68.279C186.332,68.685 186.35,68.999 186.389,69.224C186.426,69.448 186.498,69.688 186.604,69.945L184.49,69.945C184.416,69.806 184.359,69.659 184.322,69.504C184.285,69.349 184.25,69.198 184.219,69.047L184.186,69.047C183.93,69.497 183.633,69.788 183.297,69.92C182.961,70.054 182.525,70.121 181.992,70.121C181.607,70.121 181.281,70.054 181.016,69.92C180.748,69.788 180.533,69.603 180.373,69.368C180.213,69.133 180.096,68.869 180.021,68.575C179.947,68.282 179.91,67.991 179.91,67.702C179.91,67.296 179.951,66.947 180.037,66.654C180.123,66.36 180.254,66.109 180.43,65.9C180.605,65.692 180.83,65.519 181.104,65.379C181.375,65.242 181.703,65.119 182.088,65.011L183.338,64.675C183.668,64.59 183.896,64.472 184.025,64.323C184.154,64.173 184.219,63.955 184.219,63.666C184.219,63.336 184.141,63.077 183.986,62.889C183.83,62.703 183.566,62.609 183.193,62.609C182.852,62.609 182.596,62.711 182.424,62.914C182.254,63.117 182.168,63.388 182.168,63.73L182.168,63.97L180.182,63.97L180.182,63.762Z" style="fill:white;fill-rule:nonzero;"/>
        <path d="M195.285,65.916C195.113,65.986 194.959,66.037 194.82,66.069C194.373,66.165 194.051,66.325 193.859,66.549C193.668,66.773 193.57,67.078 193.57,67.462C193.57,67.793 193.635,68.077 193.764,68.311C193.893,68.546 194.105,68.663 194.404,68.663C194.553,68.663 194.709,68.639 194.869,68.591C195.029,68.543 195.176,68.465 195.309,68.359C195.441,68.252 195.551,68.113 195.637,67.943C195.723,67.772 195.766,67.569 195.766,67.333L195.766,65.636C195.615,65.753 195.455,65.847 195.285,65.916ZM191.729,63.762C191.729,63.26 191.809,62.841 191.969,62.505C192.129,62.169 192.346,61.896 192.617,61.688C192.891,61.48 193.211,61.331 193.58,61.24C193.947,61.149 194.34,61.103 194.756,61.103C195.418,61.103 195.951,61.167 196.357,61.296C196.764,61.423 197.078,61.605 197.303,61.84C197.527,62.075 197.68,62.355 197.76,62.681C197.84,63.007 197.879,63.362 197.879,63.747L197.879,68.279C197.879,68.685 197.898,68.999 197.936,69.224C197.973,69.448 198.045,69.688 198.152,69.945L196.037,69.945C195.963,69.806 195.906,69.659 195.869,69.504C195.832,69.349 195.797,69.198 195.766,69.047L195.732,69.047C195.477,69.497 195.182,69.788 194.844,69.92C194.508,70.054 194.072,70.121 193.539,70.121C193.154,70.121 192.828,70.054 192.563,69.92C192.295,69.788 192.082,69.603 191.922,69.368C191.762,69.133 191.645,68.869 191.568,68.575C191.494,68.282 191.457,67.991 191.457,67.702C191.457,67.296 191.5,66.947 191.584,66.654C191.67,66.36 191.801,66.109 191.979,65.9C192.154,65.692 192.377,65.519 192.65,65.379C192.922,65.242 193.25,65.119 193.635,65.011L194.885,64.675C195.215,64.59 195.445,64.472 195.572,64.323C195.701,64.173 195.766,63.955 195.766,63.666C195.766,63.336 195.688,63.077 195.533,62.889C195.379,62.703 195.113,62.609 194.74,62.609C194.398,62.609 194.143,62.711 193.971,62.914C193.801,63.117 193.715,63.388 193.715,63.73L193.715,63.97L191.729,63.97L191.729,63.762Z" style="fill:white;fill-rule:nonzero;"/>
        <path d="M201.875,67.758C202.02,68.234 202.338,68.471 202.828,68.471C203.309,68.471 203.621,68.234 203.766,67.758C203.91,67.284 203.982,66.576 203.982,65.636C203.982,64.697 203.91,63.99 203.766,63.514C203.621,63.039 203.309,62.801 202.828,62.801C202.338,62.801 202.02,63.039 201.875,63.514C201.732,63.99 201.658,64.697 201.658,65.636C201.658,66.576 201.732,67.284 201.875,67.758ZM201.658,58.508L201.658,62.128L201.691,62.128C201.926,61.787 202.189,61.531 202.484,61.36C202.777,61.189 203.133,61.103 203.549,61.103C204.457,61.103 205.125,61.458 205.551,62.169C205.979,62.878 206.191,64.035 206.191,65.636C206.191,67.238 205.979,68.385 205.551,69.08C205.125,69.774 204.457,70.121 203.549,70.121C203.102,70.121 202.725,70.04 202.42,69.88C202.115,69.72 201.842,69.438 201.596,69.032L201.563,69.032L201.563,69.945L199.449,69.945L199.449,58.508L201.658,58.508Z" style="fill:white;fill-rule:nonzero;"/>
        <path d="M209.748,61.328L209.748,69.945L207.537,69.945L207.537,61.328L209.748,61.328ZM209.748,58.38L209.748,60.271L207.537,60.271L207.537,58.38L209.748,58.38Z" style="fill:white;fill-rule:nonzero;"/>
        <path d="M215.385,63.787C215.354,63.536 215.297,63.322 215.217,63.146C215.137,62.969 215.025,62.836 214.881,62.746C214.736,62.655 214.553,62.609 214.328,62.609C214.104,62.609 213.92,62.66 213.775,62.761C213.631,62.863 213.518,62.997 213.432,63.162C213.346,63.328 213.285,63.511 213.248,63.714C213.209,63.917 213.191,64.121 213.191,64.323L213.191,64.66L215.449,64.66C215.438,64.329 215.418,64.037 215.385,63.787ZM213.191,66.661C213.191,66.917 213.209,67.165 213.248,67.406C213.285,67.646 213.346,67.86 213.432,68.046C213.518,68.234 213.629,68.383 213.768,68.495C213.906,68.607 214.078,68.663 214.279,68.663C214.654,68.663 214.926,68.53 215.098,68.263C215.268,67.996 215.385,67.59 215.449,67.045L217.436,67.045C217.393,68.049 217.125,68.813 216.635,69.336C216.145,69.859 215.369,70.121 214.313,70.121C213.512,70.121 212.887,69.987 212.438,69.72C211.99,69.454 211.658,69.101 211.445,68.663C211.23,68.226 211.102,67.734 211.053,67.19C211.006,66.645 210.98,66.1 210.98,65.556C210.98,64.98 211.021,64.424 211.102,63.89C211.182,63.357 211.342,62.881 211.582,62.465C211.822,62.048 212.166,61.717 212.615,61.472C213.063,61.226 213.66,61.103 214.408,61.103C215.049,61.103 215.574,61.207 215.986,61.415C216.396,61.624 216.721,61.917 216.955,62.296C217.189,62.676 217.35,63.134 217.436,63.674C217.52,64.213 217.564,64.814 217.564,65.476L217.564,65.972L213.191,65.972L213.191,66.661Z" style="fill:white;fill-rule:nonzero;"/>
        <path d="M220.83,61.328L220.83,62.481L220.863,62.481C221.088,62.064 221.359,61.731 221.68,61.48C222,61.229 222.389,61.103 222.85,61.103C222.912,61.103 222.98,61.106 223.049,61.112C223.119,61.117 223.186,61.125 223.25,61.135L223.25,63.249C223.131,63.239 223.018,63.231 222.904,63.226C222.793,63.22 222.678,63.217 222.561,63.217C222.369,63.217 222.176,63.245 221.984,63.297C221.791,63.351 221.615,63.439 221.455,63.562C221.295,63.685 221.168,63.845 221.07,64.042C220.975,64.24 220.928,64.483 220.928,64.771L220.928,69.945L218.717,69.945L218.717,61.328L220.83,61.328Z" style="fill:white;fill-rule:nonzero;"/>
        <path d="M226.74,58.861L226.74,61.328L228.021,61.328L228.021,62.833L226.74,62.833L226.74,67.495C226.74,67.835 226.791,68.079 226.893,68.223C226.994,68.367 227.205,68.439 227.525,68.439C227.611,68.439 227.695,68.437 227.781,68.431C227.867,68.425 227.947,68.417 228.021,68.407L228.021,69.945C227.777,69.945 227.539,69.953 227.309,69.968C227.08,69.985 226.838,69.993 226.58,69.993C226.154,69.993 225.805,69.963 225.531,69.905C225.26,69.846 225.051,69.728 224.906,69.552C224.764,69.376 224.664,69.144 224.611,68.855C224.557,68.567 224.531,68.205 224.531,67.766L224.531,62.833L223.41,62.833L223.41,61.328L224.531,61.328L224.531,58.861L226.74,58.861Z" style="fill:white;fill-rule:nonzero;"/>
        <path d="M232.33,65.916C232.16,65.986 232.004,66.037 231.867,66.069C231.418,66.165 231.098,66.325 230.904,66.549C230.713,66.773 230.617,67.078 230.617,67.462C230.617,67.793 230.68,68.077 230.809,68.311C230.938,68.546 231.15,68.663 231.449,68.663C231.6,68.663 231.754,68.639 231.914,68.591C232.074,68.543 232.221,68.465 232.354,68.359C232.488,68.252 232.598,68.113 232.682,67.943C232.768,67.772 232.811,67.569 232.811,67.333L232.811,65.636C232.662,65.753 232.502,65.847 232.33,65.916ZM228.775,63.762C228.775,63.26 228.855,62.841 229.016,62.505C229.176,62.169 229.391,61.896 229.664,61.688C229.936,61.48 230.256,61.331 230.625,61.24C230.992,61.149 231.385,61.103 231.803,61.103C232.465,61.103 232.998,61.167 233.404,61.296C233.809,61.423 234.125,61.605 234.348,61.84C234.572,62.075 234.725,62.355 234.805,62.681C234.885,63.007 234.926,63.362 234.926,63.747L234.926,68.279C234.926,68.685 234.943,68.999 234.98,69.224C235.02,69.448 235.09,69.688 235.197,69.945L233.084,69.945C233.008,69.806 232.953,69.659 232.914,69.504C232.877,69.349 232.844,69.198 232.811,69.047L232.779,69.047C232.521,69.497 232.227,69.788 231.891,69.92C231.555,70.054 231.119,70.121 230.584,70.121C230.201,70.121 229.875,70.054 229.607,69.92C229.34,69.788 229.127,69.603 228.967,69.368C228.807,69.133 228.689,68.869 228.615,68.575C228.539,68.282 228.502,67.991 228.502,67.702C228.502,67.296 228.545,66.947 228.631,66.654C228.717,66.36 228.848,66.109 229.023,65.9C229.199,65.692 229.424,65.519 229.695,65.379C229.969,65.242 230.297,65.119 230.68,65.011L231.93,64.675C232.26,64.59 232.49,64.472 232.619,64.323C232.746,64.173 232.811,63.955 232.811,63.666C232.811,63.336 232.734,63.077 232.578,62.889C232.424,62.703 232.16,62.609 231.785,62.609C231.443,62.609 231.188,62.711 231.018,62.914C230.846,63.117 230.762,63.388 230.762,63.73L230.762,63.97L228.775,63.97L228.775,63.762Z" style="fill:white;fill-rule:nonzero;"/>
        <path d="M243.879,65.916C243.707,65.986 243.553,66.037 243.414,66.069C242.965,66.165 242.645,66.325 242.453,66.549C242.26,66.773 242.164,67.078 242.164,67.462C242.164,67.793 242.229,68.077 242.355,68.311C242.484,68.546 242.697,68.663 242.998,68.663C243.146,68.663 243.301,68.639 243.461,68.591C243.621,68.543 243.768,68.465 243.902,68.359C244.035,68.252 244.145,68.113 244.23,67.943C244.316,67.772 244.359,67.569 244.359,67.333L244.359,65.636C244.209,65.753 244.049,65.847 243.879,65.916ZM240.322,63.762C240.322,63.26 240.402,62.841 240.563,62.505C240.723,62.169 240.939,61.896 241.211,61.688C241.484,61.48 241.805,61.331 242.172,61.24C242.541,61.149 242.934,61.103 243.35,61.103C244.012,61.103 244.545,61.167 244.951,61.296C245.357,61.423 245.672,61.605 245.896,61.84C246.121,62.075 246.273,62.355 246.354,62.681C246.434,63.007 246.473,63.362 246.473,63.747L246.473,68.279C246.473,68.685 246.492,68.999 246.529,69.224C246.566,69.448 246.639,69.688 246.744,69.945L244.631,69.945C244.557,69.806 244.5,69.659 244.463,69.504C244.426,69.349 244.391,69.198 244.359,69.047L244.326,69.047C244.07,69.497 243.773,69.788 243.438,69.92C243.102,70.054 242.666,70.121 242.133,70.121C241.748,70.121 241.422,70.054 241.154,69.92C240.889,69.788 240.676,69.603 240.516,69.368C240.355,69.133 240.236,68.869 240.162,68.575C240.088,68.282 240.051,67.991 240.051,67.702C240.051,67.296 240.092,66.947 240.178,66.654C240.264,66.36 240.395,66.109 240.57,65.9C240.746,65.692 240.971,65.519 241.244,65.379C241.516,65.242 241.844,65.119 242.229,65.011L243.479,64.675C243.809,64.59 244.039,64.472 244.166,64.323C244.295,64.173 244.359,63.955 244.359,63.666C244.359,63.336 244.281,63.077 244.127,62.889C243.971,62.703 243.707,62.609 243.334,62.609C242.992,62.609 242.734,62.711 242.564,62.914C242.395,63.117 242.309,63.388 242.309,63.73L242.309,63.97L240.322,63.97L240.322,63.762Z" style="fill:white;fill-rule:nonzero;"/>
        <rect x="248.123" y="58.508" width="2.21" height="11.437" style="fill:white;fill-rule:nonzero;"/>
        <path d="M258.42,58.861L258.42,61.328L259.702,61.328L259.702,62.833L258.42,62.833L258.42,67.495C258.42,67.835 258.471,68.079 258.573,68.223C258.674,68.367 258.885,68.439 259.206,68.439C259.292,68.439 259.377,68.437 259.463,68.431C259.547,68.425 259.627,68.417 259.702,68.407L259.702,69.945C259.458,69.945 259.219,69.953 258.989,69.968C258.76,69.985 258.518,69.993 258.26,69.993C257.834,69.993 257.484,69.963 257.211,69.905C256.94,69.846 256.73,69.728 256.586,69.552C256.441,69.376 256.344,69.144 256.292,68.855C256.237,68.567 256.211,68.205 256.211,67.766L256.211,62.833L255.09,62.833L255.09,61.328L256.211,61.328L256.211,58.861L258.42,58.861Z" style="fill:white;fill-rule:nonzero;"/>
        <path d="M262.762,61.328L262.762,69.945L260.551,69.945L260.551,61.328L262.762,61.328ZM262.762,58.38L262.762,60.271L260.551,60.271L260.551,58.38L262.762,58.38Z" style="fill:white;fill-rule:nonzero;"/>
        <path d="M268.399,63.787C268.368,63.536 268.311,63.322 268.231,63.146C268.151,62.969 268.04,62.836 267.895,62.746C267.75,62.655 267.567,62.609 267.342,62.609C267.118,62.609 266.934,62.66 266.79,62.761C266.645,62.863 266.53,62.997 266.446,63.162C266.36,63.328 266.297,63.511 266.26,63.714C266.223,63.917 266.206,64.121 266.206,64.323L266.206,64.66L268.463,64.66C268.452,64.329 268.43,64.037 268.399,63.787ZM266.206,66.661C266.206,66.917 266.223,67.165 266.26,67.406C266.297,67.646 266.36,67.86 266.446,68.046C266.53,68.234 266.643,68.383 266.782,68.495C266.92,68.607 267.09,68.663 267.293,68.663C267.668,68.663 267.94,68.53 268.11,68.263C268.282,67.996 268.399,67.59 268.463,67.045L270.45,67.045C270.407,68.049 270.139,68.813 269.649,69.336C269.157,69.859 268.383,70.121 267.327,70.121C266.524,70.121 265.901,69.987 265.452,69.72C265.004,69.454 264.672,69.101 264.459,68.663C264.245,68.226 264.114,67.734 264.067,67.19C264.018,66.645 263.995,66.1 263.995,65.556C263.995,64.98 264.034,64.424 264.114,63.89C264.194,63.357 264.356,62.881 264.596,62.465C264.834,62.048 265.18,61.717 265.627,61.472C266.077,61.226 266.674,61.103 267.422,61.103C268.063,61.103 268.588,61.207 269,61.415C269.411,61.624 269.733,61.917 269.969,62.296C270.204,62.676 270.364,63.134 270.45,63.674C270.536,64.213 270.577,64.814 270.577,65.476L270.577,65.972L266.206,65.972L266.206,66.661Z" style="fill:white;fill-rule:nonzero;"/>
        <path d="M273.844,61.328L273.844,62.208L273.877,62.208C274.155,61.814 274.467,61.531 274.813,61.36C275.161,61.189 275.575,61.103 276.055,61.103C276.567,61.103 276.997,61.221 277.344,61.457C277.692,61.691 277.924,62.033 278.042,62.481L278.073,62.481C278.245,62.022 278.518,61.677 278.897,61.448C279.278,61.218 279.727,61.103 280.252,61.103C280.989,61.103 281.53,61.325 281.877,61.768C282.225,62.211 282.397,62.849 282.397,63.682L282.397,69.945L280.188,69.945L280.188,63.922C280.188,63.56 280.12,63.282 279.987,63.089C279.854,62.897 279.631,62.801 279.323,62.801C278.971,62.801 278.69,62.919 278.481,63.154C278.274,63.388 278.168,63.762 278.168,64.275L278.168,69.945L275.959,69.945L275.959,63.922C275.959,63.56 275.891,63.282 275.758,63.089C275.625,62.897 275.403,62.801 275.094,62.801C274.741,62.801 274.461,62.919 274.252,63.154C274.045,63.388 273.94,63.762 273.94,64.275L273.94,69.945L271.731,69.945L271.731,61.328L273.844,61.328Z" style="fill:white;fill-rule:nonzero;"/>
        <path d="M286.297,67.758C286.442,68.234 286.758,68.471 287.25,68.471C287.731,68.471 288.043,68.234 288.188,67.758C288.331,67.284 288.403,66.576 288.403,65.636C288.403,64.697 288.331,63.99 288.188,63.514C288.043,63.039 287.731,62.801 287.25,62.801C286.758,62.801 286.442,63.039 286.297,63.514C286.153,63.99 286.081,64.697 286.081,65.636C286.081,66.576 286.153,67.284 286.297,67.758ZM285.985,61.328L285.985,62.241L286.016,62.241C286.262,61.834 286.538,61.545 286.842,61.368C287.147,61.192 287.522,61.103 287.971,61.103C288.879,61.103 289.545,61.458 289.973,62.169C290.401,62.878 290.614,64.035 290.614,65.636C290.614,67.238 290.401,68.385 289.973,69.08C289.545,69.774 288.879,70.121 287.971,70.121C287.555,70.121 287.2,70.043 286.907,69.889C286.612,69.734 286.348,69.486 286.114,69.144L286.081,69.144L286.081,72.715L283.872,72.715L283.872,61.328L285.985,61.328Z" style="fill:white;fill-rule:nonzero;"/>
        <path d="M293.834,66.853C293.854,67.228 293.905,67.547 293.985,67.814C294.065,68.082 294.186,68.29 294.346,68.439C294.506,68.589 294.719,68.663 294.987,68.663C295.436,68.663 295.745,68.428 295.917,67.958C296.086,67.489 296.172,66.714 296.172,65.636C296.172,64.557 296.086,63.784 295.917,63.314C295.745,62.844 295.436,62.609 294.987,62.609C294.719,62.609 294.506,62.684 294.346,62.833C294.186,62.983 294.065,63.191 293.985,63.457C293.905,63.725 293.854,64.045 293.834,64.419C293.811,64.794 293.801,65.199 293.801,65.636C293.801,66.074 293.811,66.48 293.834,66.853ZM291.768,63.682C291.885,63.117 292.077,62.644 292.344,62.265C292.61,61.886 292.961,61.597 293.393,61.4C293.825,61.203 294.356,61.103 294.987,61.103C295.649,61.093 296.198,61.181 296.637,61.368C297.075,61.555 297.42,61.84 297.678,62.225C297.934,62.609 298.116,63.084 298.221,63.65C298.329,64.216 298.381,64.878 298.381,65.636C298.381,66.373 298.323,67.025 298.206,67.59C298.088,68.156 297.895,68.628 297.629,69.007C297.362,69.386 297.012,69.667 296.581,69.849C296.147,70.03 295.618,70.121 294.987,70.121C294.325,70.131 293.774,70.049 293.336,69.873C292.899,69.697 292.551,69.419 292.295,69.04C292.04,68.661 291.858,68.186 291.75,67.614C291.645,67.043 291.59,66.383 291.59,65.636C291.59,64.9 291.649,64.249 291.768,63.682Z" style="fill:white;fill-rule:nonzero;"/>
        <path d="M3.835,92.956C3.835,93.435 3.865,93.874 3.927,94.273C3.99,94.673 4.105,95.019 4.275,95.312C4.443,95.605 4.673,95.835 4.966,96.004C5.259,96.173 5.628,96.257 6.072,96.257C6.533,96.257 6.906,96.173 7.191,96.004C7.474,95.835 7.701,95.605 7.869,95.312C8.039,95.019 8.154,94.673 8.216,94.273C8.277,93.874 8.308,93.435 8.308,92.956L8.308,79.693L12.144,79.693L12.144,92.956C12.144,94.163 11.974,95.162 11.638,95.951C11.3,96.742 10.847,97.368 10.279,97.829C9.71,98.29 9.064,98.601 8.335,98.761C7.607,98.92 6.853,99 6.072,99C5.291,99 4.537,98.929 3.808,98.788C3.08,98.646 2.433,98.357 1.865,97.922C1.296,97.487 0.843,96.87 0.505,96.071C0.169,95.272 0,94.234 0,92.956L0,79.693L3.835,79.693L3.835,92.956Z" style="fill:white;fill-rule:nonzero;"/>
        <path d="M23.621,92.715L23.675,92.715L23.675,79.693L27.189,79.693L27.189,98.707L22.822,98.707L18.136,85.392L18.082,85.392L18.082,98.707L14.568,98.707L14.568,79.693L18.988,79.693L23.621,92.715Z" style="fill:white;fill-rule:nonzero;"/>
        <rect x="30.039" y="79.693" width="3.836" height="19.014" style="fill:white;fill-rule:nonzero;"/>
        <path d="M42.263,93.754L42.343,93.754L45.166,79.693L49.134,79.693L44.767,98.707L39.839,98.707L35.472,79.693L39.574,79.693L42.263,93.754Z" style="fill:white;fill-rule:nonzero;"/>
        <path d="M61.171,82.835L54.38,82.835L54.38,87.309L60.771,87.309L60.771,90.452L54.38,90.452L54.38,95.565L61.437,95.565L61.437,98.707L50.544,98.707L50.544,79.693L61.171,79.693L61.171,82.835Z" style="fill:white;fill-rule:nonzero;"/>
        <path d="M68.787,88.001C69.71,88.001 70.419,87.785 70.918,87.349C71.414,86.915 71.664,86.182 71.664,85.153C71.664,83.395 70.775,82.516 69,82.516L67.189,82.516L67.189,88.001L68.787,88.001ZM70.437,79.693C72.037,79.693 73.279,80.097 74.166,80.905C75.054,81.712 75.498,82.942 75.498,84.593C75.498,85.872 75.24,86.915 74.726,87.722C74.21,88.53 73.412,89.049 72.33,89.28L72.33,89.333C73.287,89.475 73.988,89.786 74.433,90.265C74.877,90.745 75.152,91.517 75.257,92.582C75.293,92.938 75.32,93.324 75.337,93.741C75.355,94.158 75.373,94.624 75.392,95.139C75.427,96.151 75.48,96.923 75.55,97.456C75.658,97.989 75.888,98.352 76.244,98.547L76.244,98.707L72.089,98.707C71.894,98.441 71.769,98.135 71.716,97.789C71.664,97.443 71.627,97.082 71.609,96.71L71.503,93.062C71.468,92.316 71.281,91.73 70.945,91.304C70.607,90.878 70.039,90.665 69.24,90.665L67.189,90.665L67.189,98.707L63.355,98.707L63.355,79.693L70.437,79.693Z" style="fill:white;fill-rule:nonzero;"/>
        <path d="M81.25,93.328C81.25,93.772 81.285,94.176 81.357,94.54C81.427,94.904 81.56,95.21 81.755,95.458C81.951,95.707 82.212,95.903 82.543,96.044C82.871,96.187 83.283,96.257 83.781,96.257C84.367,96.257 84.894,96.067 85.365,95.685C85.835,95.303 86.07,94.712 86.07,93.914C86.07,93.488 86.013,93.12 85.898,92.809C85.781,92.499 85.591,92.218 85.324,91.97C85.058,91.721 84.709,91.495 84.273,91.29C83.837,91.086 83.3,90.878 82.662,90.665C81.81,90.381 81.072,90.07 80.451,89.733C79.83,89.396 79.31,89 78.894,88.547C78.476,88.095 78.169,87.572 77.974,86.977C77.779,86.382 77.681,85.694 77.681,84.913C77.681,83.031 78.205,81.628 79.253,80.705C80.3,79.782 81.738,79.32 83.566,79.32C84.419,79.32 85.205,79.414 85.923,79.6C86.642,79.787 87.263,80.088 87.789,80.505C88.312,80.922 88.72,81.456 89.013,82.103C89.306,82.751 89.453,83.528 89.453,84.433L89.453,84.965L85.777,84.965C85.777,84.06 85.617,83.364 85.298,82.875C84.978,82.387 84.445,82.143 83.701,82.143C83.275,82.143 82.919,82.206 82.634,82.33C82.351,82.454 82.125,82.619 81.957,82.822C81.787,83.026 81.671,83.261 81.609,83.528C81.546,83.794 81.517,84.07 81.517,84.353C81.517,84.939 81.64,85.432 81.89,85.832C82.138,86.231 82.669,86.599 83.488,86.937L86.443,88.215C87.171,88.535 87.765,88.868 88.228,89.213C88.689,89.56 89.056,89.932 89.334,90.332C89.607,90.732 89.798,91.17 89.906,91.65C90.011,92.129 90.064,92.663 90.064,93.249C90.064,95.254 89.484,96.714 88.32,97.628C87.158,98.543 85.539,99 83.46,99C81.294,99 79.746,98.531 78.814,97.589C77.88,96.648 77.416,95.298 77.416,93.541L77.416,92.769L81.25,92.769L81.25,93.328Z" style="fill:white;fill-rule:nonzero;"/>
        <rect x="92.169" y="79.693" width="3.834" height="19.014" style="fill:white;fill-rule:nonzero;"/>
        <path d="M104.58,95.884C105.254,95.884 105.795,95.769 106.203,95.539C106.611,95.308 106.936,94.926 107.176,94.393C107.416,93.861 107.574,93.16 107.654,92.29C107.734,91.419 107.775,90.336 107.775,89.04C107.775,87.957 107.738,87.007 107.668,86.191C107.598,85.374 107.451,84.696 107.229,84.154C107.006,83.612 106.678,83.205 106.244,82.928C105.809,82.654 105.227,82.516 104.5,82.516L102.875,82.516L102.875,95.884L104.58,95.884ZM105.324,79.693C106.656,79.693 107.73,79.911 108.547,80.345C109.363,80.781 109.998,81.402 110.451,82.209C110.904,83.018 111.211,83.99 111.369,85.125C111.529,86.262 111.609,87.532 111.609,88.934C111.609,90.603 111.508,92.054 111.303,93.288C111.1,94.522 110.748,95.539 110.252,96.337C109.754,97.136 109.088,97.731 108.254,98.122C107.42,98.512 106.363,98.707 105.086,98.707L99.039,98.707L99.039,79.693L105.324,79.693Z" style="fill:white;fill-rule:nonzero;"/>
        <path d="M122.076,91.543L120.238,82.996L120.186,82.996L118.348,91.543L122.076,91.543ZM122.582,79.693L127.615,98.707L123.619,98.707L122.742,94.686L117.682,94.686L116.803,98.707L112.809,98.707L117.842,79.693L122.582,79.693Z" style="fill:white;fill-rule:nonzero;"/>
        <path d="M134.672,95.884C135.346,95.884 135.887,95.769 136.297,95.539C136.705,95.308 137.029,94.926 137.268,94.393C137.508,93.861 137.668,93.16 137.748,92.29C137.828,91.419 137.867,90.336 137.867,89.04C137.867,87.957 137.832,87.007 137.762,86.191C137.689,85.374 137.543,84.696 137.322,84.154C137.1,83.612 136.771,83.205 136.336,82.928C135.9,82.654 135.32,82.516 134.592,82.516L132.967,82.516L132.967,95.884L134.672,95.884ZM135.418,79.693C136.75,79.693 137.822,79.911 138.641,80.345C139.457,80.781 140.092,81.402 140.543,82.209C140.996,83.018 141.303,83.99 141.463,85.125C141.623,86.262 141.703,87.532 141.703,88.934C141.703,90.603 141.6,92.054 141.396,93.288C141.191,94.522 140.842,95.539 140.344,96.337C139.848,97.136 139.182,97.731 138.348,98.122C137.512,98.512 136.457,98.707 135.178,98.707L129.132,98.707L129.132,79.693L135.418,79.693Z" style="fill:white;fill-rule:nonzero;"/>
        <path d="M157.574,91.543L155.736,82.996L155.684,82.996L153.846,91.543L157.574,91.543ZM158.08,79.693L163.113,98.707L159.119,98.707L158.24,94.686L153.18,94.686L152.301,98.707L148.307,98.707L153.34,79.693L158.08,79.693Z" style="fill:white;fill-rule:nonzero;"/>
        <path d="M168.041,92.956C168.041,93.435 168.07,93.874 168.133,94.273C168.195,94.673 168.311,95.019 168.48,95.312C168.648,95.605 168.879,95.835 169.172,96.004C169.465,96.173 169.834,96.257 170.277,96.257C170.738,96.257 171.111,96.173 171.396,96.004C171.68,95.835 171.906,95.605 172.074,95.312C172.244,95.019 172.359,94.673 172.422,94.273C172.482,93.874 172.514,93.435 172.514,92.956L172.514,79.693L176.35,79.693L176.35,92.956C176.35,94.163 176.18,95.162 175.844,95.951C175.506,96.742 175.053,97.368 174.484,97.829C173.916,98.29 173.268,98.601 172.541,98.761C171.813,98.92 171.059,99 170.277,99C169.496,99 168.742,98.929 168.014,98.788C167.285,98.646 166.637,98.357 166.07,97.922C165.502,97.487 165.049,96.87 164.711,96.071C164.373,95.272 164.205,94.234 164.205,92.956L164.205,79.693L168.041,79.693L168.041,92.956Z" style="fill:white;fill-rule:nonzero;"/>
        <path d="M189.904,82.835L185.75,82.835L185.75,98.707L181.914,98.707L181.914,82.835L177.76,82.835L177.76,79.693L189.904,79.693L189.904,82.835Z" style="fill:white;fill-rule:nonzero;"/>
        <path d="M201.01,74.74L198.398,78.575L195.896,78.575L197.334,74.74L201.01,74.74ZM195.084,92.462C195.146,93.359 195.27,94.087 195.457,94.646C195.643,95.206 195.91,95.614 196.256,95.872C196.602,96.128 197.059,96.257 197.627,96.257C198.195,96.257 198.652,96.128 198.998,95.872C199.346,95.614 199.611,95.206 199.797,94.646C199.984,94.087 200.107,93.359 200.17,92.462C200.232,91.566 200.264,90.479 200.264,89.201C200.264,87.922 200.232,86.839 200.17,85.952C200.107,85.064 199.984,84.335 199.797,83.767C199.611,83.2 199.346,82.787 198.998,82.529C198.652,82.272 198.195,82.143 197.627,82.143C197.059,82.143 196.602,82.272 196.256,82.529C195.91,82.787 195.643,83.2 195.457,83.767C195.27,84.335 195.146,85.064 195.084,85.952C195.021,86.839 194.99,87.922 194.99,89.201C194.99,90.479 195.021,91.566 195.084,92.462ZM191.355,85.219C191.488,84.003 191.781,82.959 192.234,82.089C192.688,81.22 193.34,80.541 194.191,80.052C195.043,79.564 196.189,79.32 197.627,79.32C199.064,79.32 200.211,79.564 201.063,80.052C201.914,80.541 202.566,81.22 203.02,82.089C203.473,82.959 203.766,84.003 203.898,85.219C204.031,86.435 204.098,87.762 204.098,89.201C204.098,90.656 204.031,91.988 203.898,93.195C203.766,94.403 203.473,95.441 203.02,96.311C202.566,97.181 201.914,97.846 201.063,98.308C200.211,98.769 199.064,99 197.627,99C196.189,99 195.043,98.769 194.191,98.308C193.34,97.846 192.688,97.181 192.234,96.311C191.781,95.441 191.488,94.403 191.355,93.195C191.223,91.988 191.156,90.656 191.156,89.201C191.156,87.762 191.223,86.435 191.355,85.219Z" style="fill:white;fill-rule:nonzero;"/>
        <path d="M215.416,92.715L215.469,92.715L215.469,79.693L218.984,79.693L218.984,98.707L214.617,98.707L209.93,85.392L209.877,85.392L209.877,98.707L206.361,98.707L206.361,79.693L210.783,79.693L215.416,92.715Z" style="fill:white;fill-rule:nonzero;"/>
        <path d="M225.176,92.462C225.238,93.359 225.363,94.087 225.549,94.646C225.736,95.206 226.002,95.614 226.348,95.872C226.695,96.128 227.152,96.257 227.721,96.257C228.287,96.257 228.744,96.128 229.092,95.872C229.438,95.614 229.703,95.206 229.891,94.646C230.076,94.087 230.201,93.359 230.264,92.462C230.324,91.566 230.355,90.479 230.355,89.201C230.355,87.922 230.324,86.839 230.264,85.952C230.201,85.064 230.076,84.335 229.891,83.767C229.703,83.2 229.438,82.787 229.092,82.529C228.744,82.272 228.287,82.143 227.721,82.143C227.152,82.143 226.695,82.272 226.348,82.529C226.002,82.787 225.736,83.2 225.549,83.767C225.363,84.335 225.238,85.064 225.176,85.952C225.113,86.839 225.084,87.922 225.084,89.201C225.084,90.479 225.113,91.566 225.176,92.462ZM221.449,85.219C221.582,84.003 221.875,82.959 222.326,82.089C222.779,81.22 223.432,80.541 224.285,80.052C225.137,79.564 226.281,79.32 227.721,79.32C229.158,79.32 230.303,79.564 231.156,80.052C232.008,80.541 232.66,81.22 233.113,82.089C233.564,82.959 233.857,84.003 233.992,85.219C234.125,86.435 234.191,87.762 234.191,89.201C234.191,90.656 234.125,91.988 233.992,93.195C233.857,94.403 233.564,95.441 233.113,96.311C232.66,97.181 232.008,97.846 231.156,98.308C230.303,98.769 229.158,99 227.721,99C226.281,99 225.137,98.769 224.285,98.308C223.432,97.846 222.779,97.181 222.326,96.311C221.875,95.441 221.582,94.403 221.449,93.195C221.314,91.988 221.248,90.656 221.248,89.201C221.248,87.762 221.314,86.435 221.449,85.219Z" style="fill:white;fill-rule:nonzero;"/>
        <path d="M242.234,79.693L244.949,93.115L245.004,93.115L247.746,79.693L253.418,79.693L253.418,98.707L249.903,98.707L249.903,83.528L249.85,83.528L246.469,98.707L243.486,98.707L240.104,83.528L240.051,83.528L240.051,98.707L236.535,98.707L236.535,79.693L242.234,79.693Z" style="fill:white;fill-rule:nonzero;"/>
        <path d="M264.098,91.543L262.26,82.996L262.208,82.996L260.37,91.543L264.098,91.543ZM264.604,79.693L269.637,98.707L265.643,98.707L264.764,94.686L259.704,94.686L258.825,98.707L254.831,98.707L259.864,79.693L264.604,79.693Z" style="fill:white;fill-rule:nonzero;"/>
        <path d="M283.139,79.693L285.854,93.115L285.909,93.115L288.651,79.693L294.323,79.693L294.323,98.707L290.809,98.707L290.809,83.528L290.754,83.528L287.374,98.707L284.391,98.707L281.008,83.528L280.956,83.528L280.956,98.707L277.44,98.707L277.44,79.693L283.139,79.693Z" style="fill:white;fill-rule:nonzero;"/>
        <path d="M307.692,82.835L300.901,82.835L300.901,87.309L307.293,87.309L307.293,90.452L300.901,90.452L300.901,95.565L307.958,95.565L307.958,98.707L297.067,98.707L297.067,79.693L307.692,79.693L307.692,82.835Z" style="fill:white;fill-rule:nonzero;"/>
        <path d="M321.006,82.835L316.852,82.835L316.852,98.707L313.018,98.707L313.018,82.835L308.864,82.835L308.864,79.693L321.006,79.693L321.006,82.835Z" style="fill:white;fill-rule:nonzero;"/>
        <path d="M328.09,88.001C329.014,88.001 329.725,87.785 330.221,87.349C330.719,86.915 330.967,86.182 330.967,85.153C330.967,83.395 330.079,82.516 328.303,82.516L326.493,82.516L326.493,88.001L328.09,88.001ZM329.743,79.693C331.34,79.693 332.583,80.097 333.471,80.905C334.358,81.712 334.801,82.942 334.801,84.593C334.801,85.872 334.545,86.915 334.03,87.722C333.514,88.53 332.715,89.049 331.633,89.28L331.633,89.333C332.592,89.475 333.293,89.786 333.737,90.265C334.18,90.745 334.456,91.517 334.563,92.582C334.598,92.938 334.624,93.324 334.643,93.741C334.661,94.158 334.678,94.624 334.696,95.139C334.731,96.151 334.784,96.923 334.856,97.456C334.961,97.989 335.192,98.352 335.547,98.547L335.547,98.707L331.393,98.707C331.198,98.441 331.075,98.135 331.02,97.789C330.967,97.443 330.932,97.082 330.915,96.71L330.807,93.062C330.772,92.316 330.584,91.73 330.249,91.304C329.911,90.878 329.342,90.665 328.543,90.665L326.493,90.665L326.493,98.707L322.659,98.707L322.659,79.693L329.743,79.693Z" style="fill:white;fill-rule:nonzero;"/>
        <path d="M340.993,92.462C341.055,93.359 341.18,94.087 341.366,94.646C341.553,95.206 341.819,95.614 342.165,95.872C342.512,96.128 342.969,96.257 343.538,96.257C344.104,96.257 344.563,96.128 344.909,95.872C345.254,95.614 345.522,95.206 345.708,94.646C345.893,94.087 346.018,93.359 346.081,92.462C346.143,91.566 346.172,90.479 346.172,89.201C346.172,87.922 346.143,86.839 346.081,85.952C346.018,85.064 345.893,84.335 345.708,83.767C345.522,83.2 345.254,82.787 344.909,82.529C344.563,82.272 344.104,82.143 343.538,82.143C342.969,82.143 342.512,82.272 342.165,82.529C341.819,82.787 341.553,83.2 341.366,83.767C341.18,84.335 341.055,85.064 340.993,85.952C340.932,86.839 340.901,87.922 340.901,89.201C340.901,90.479 340.932,91.566 340.993,92.462ZM337.266,85.219C337.399,84.003 337.692,82.959 338.145,82.089C338.596,81.22 339.249,80.541 340.102,80.052C340.954,79.564 342.098,79.32 343.538,79.32C344.975,79.32 346.12,79.564 346.973,80.052C347.825,80.541 348.477,81.22 348.93,82.089C349.383,82.959 349.676,84.003 349.809,85.219C349.942,86.435 350.008,87.762 350.008,89.201C350.008,90.656 349.942,91.988 349.809,93.195C349.676,94.403 349.383,95.441 348.93,96.311C348.477,97.181 347.825,97.846 346.973,98.308C346.12,98.769 344.975,99 343.538,99C342.098,99 340.954,98.769 340.102,98.308C339.249,97.846 338.596,97.181 338.145,96.311C337.692,95.441 337.399,94.403 337.266,93.195C337.131,91.988 337.065,90.656 337.065,89.201C337.065,87.762 337.131,86.435 337.266,85.219Z" style="fill:white;fill-rule:nonzero;"/>
        <path d="M357.811,88.294C358.575,88.294 359.192,88.064 359.663,87.602C360.131,87.141 360.368,86.422 360.368,85.445C360.368,84.487 360.163,83.759 359.754,83.261C359.346,82.765 358.663,82.516 357.704,82.516L356.106,82.516L356.106,88.294L357.811,88.294ZM358.983,79.693C359.959,79.693 360.78,79.857 361.446,80.186C362.112,80.514 362.649,80.945 363.057,81.477C363.465,82.01 363.758,82.619 363.936,83.301C364.114,83.985 364.202,84.682 364.202,85.392C364.202,86.369 364.055,87.221 363.762,87.949C363.469,88.676 363.061,89.271 362.538,89.733C362.014,90.195 361.379,90.54 360.633,90.771C359.889,91.002 359.063,91.118 358.157,91.118L356.106,91.118L356.106,98.707L352.272,98.707L352.272,79.693L358.983,79.693Z" style="fill:white;fill-rule:nonzero;"/>
        <path d="M369.622,92.462C369.684,93.359 369.809,94.087 369.995,94.646C370.182,95.206 370.448,95.614 370.793,95.872C371.139,96.128 371.596,96.257 372.165,96.257C372.733,96.257 373.19,96.128 373.538,95.872C373.883,95.614 374.149,95.206 374.336,94.646C374.522,94.087 374.645,93.359 374.708,92.462C374.77,91.566 374.801,90.479 374.801,89.201C374.801,87.922 374.77,86.839 374.708,85.952C374.645,85.064 374.522,84.335 374.336,83.767C374.149,83.2 373.883,82.787 373.538,82.529C373.19,82.272 372.733,82.143 372.165,82.143C371.596,82.143 371.139,82.272 370.793,82.529C370.448,82.787 370.182,83.2 369.995,83.767C369.809,84.335 369.684,85.064 369.622,85.952C369.559,86.839 369.528,87.922 369.528,89.201C369.528,90.479 369.559,91.566 369.622,92.462ZM365.893,85.219C366.026,84.003 366.319,82.959 366.772,82.089C367.225,81.22 367.877,80.541 368.729,80.052C369.583,79.564 370.727,79.32 372.165,79.32C373.604,79.32 374.749,79.564 375.6,80.052C376.454,80.541 377.106,81.22 377.557,82.089C378.01,82.959 378.303,84.003 378.436,85.219C378.571,86.435 378.637,87.762 378.637,89.201C378.637,90.656 378.571,91.988 378.436,93.195C378.303,94.403 378.01,95.441 377.557,96.311C377.106,97.181 376.454,97.846 375.6,98.308C374.749,98.769 373.604,99 372.165,99C370.727,99 369.583,98.769 368.729,98.308C367.877,97.846 367.225,97.181 366.772,96.311C366.319,95.441 366.026,94.403 365.893,93.195C365.76,91.988 365.694,90.656 365.694,89.201C365.694,87.762 365.76,86.435 365.893,85.219Z" style="fill:white;fill-rule:nonzero;"/>
        <path d="M380.901,79.693L384.735,79.693L384.735,95.565L391.526,95.565L391.526,98.707L380.901,98.707L380.901,79.693Z" style="fill:white;fill-rule:nonzero;"/>
        <rect x="393.417" y="79.693" width="3.833" height="19.014" style="fill:white;fill-rule:nonzero;"/>
        <path d="M411.233,82.835L407.079,82.835L407.079,98.707L403.243,98.707L403.243,82.835L399.088,82.835L399.088,79.693L411.233,79.693L411.233,82.835Z" style="fill:white;fill-rule:nonzero;"/>
        <path d="M419.356,91.543L417.518,82.996L417.465,82.996L415.627,91.543L419.356,91.543ZM419.862,79.693L424.895,98.707L420.901,98.707L420.022,94.686L414.961,94.686L414.083,98.707L410.088,98.707L415.122,79.693L419.862,79.693Z" style="fill:white;fill-rule:nonzero;"/>
        <path d="M435.28,92.715L435.334,92.715L435.334,79.693L438.848,79.693L438.848,98.707L434.481,98.707L429.795,85.392L429.741,85.392L429.741,98.707L426.227,98.707L426.227,79.693L430.647,79.693L435.28,92.715Z" style="fill:white;fill-rule:nonzero;"/>
        <path d="M449.448,91.543L447.61,82.996L447.557,82.996L445.719,91.543L449.448,91.543ZM449.954,79.693L454.987,98.707L450.993,98.707L450.114,94.686L445.053,94.686L444.174,98.707L440.18,98.707L445.213,79.693L449.954,79.693Z" style="fill:white;fill-rule:nonzero;"/>
    </g>
</svg>
